<?xml version="1.0" encoding="utf-8"?>
<!-- Generator: Adobe Adobe Illustrator 24.2.0, SVG Export Plug-In . SVG Version: 6.00 Build 0)  -->
<svg version="1.1" id="Layer_1" xmlns="http://www.w3.org/2000/svg" xmlns:xlink="http://www.w3.org/1999/xlink" x="0px" y="0px"
	 width="1366px" height="768px" viewBox="0 0 1366 768" style="enable-background:new 0 0 1366 768;" xml:space="preserve">
<style type="text/css">
	.st0{fill:#FFFFFF;}
	.st1{fill:#A167B3;}
</style>
<g>
	<g>
		<path class="st0" d="M411.95,441.91V296.39h32.69v145.52H411.95z M440.65,323.5v-27.11h58.61v27.11H440.65z M440.65,383.5v-27.31
			h56.21v27.11L440.65,383.5z"/>
		<path class="st0" d="M523.58,441.91V295.19h32.69v146.72H523.58z M547.5,395.26v-25.71h35.88c4.78,0,8.9-0.96,12.36-2.89
			c3.45-1.92,6.18-4.65,8.17-8.17c1.99-3.52,2.99-7.54,2.99-12.06c0-4.78-1-8.94-2.99-12.46c-1.99-3.52-4.72-6.25-8.17-8.17
			c-3.46-1.92-7.58-2.89-12.36-2.89H547.5v-27.71h33.29c12.09,0,22.59,1.83,31.5,5.48c8.9,3.66,15.75,9.1,20.53,16.35
			c4.78,7.25,7.18,16.25,7.18,27.01v3.19c0,10.76-2.43,19.7-7.28,26.81c-4.85,7.11-11.7,12.43-20.53,15.95
			c-8.84,3.52-19.3,5.28-31.4,5.28H547.5z M611.89,441.91l-42.86-62.59h36.08l44.65,62.59H611.89z"/>
		<path class="st0" d="M669.09,441.91V296.39h31.89v145.52H669.09z M697,323.5v-27.11h62.19v27.11H697z M697,381.51V354.4h59v27.11
			H697z M697,441.91V414.8h63.59v27.11H697z"/>
		<path class="st0" d="M787.5,441.91V296.39h45.05l33.29,81.73h3.79l32.89-81.73h45.85v145.52h-32.29V317.72l4.58,0.4l-38.47,94.29
			h-31.1l-38.67-94.29l4.98-0.4v124.19H787.5z"/>
		<path class="st0" d="M981.46,441.91V296.39h32.69v145.52H981.46z"/>
		<path class="st0" d="M1094.48,445.89c-9.57,0-17.81-1.59-24.72-4.78c-6.91-3.19-12.69-7.44-17.34-12.76
			c-4.65-5.31-8.14-11.33-10.47-18.04c-2.33-6.71-3.49-13.66-3.49-20.83v-3.79c0-7.44,1.2-14.58,3.59-21.43
			c2.39-6.84,5.95-12.92,10.67-18.24c4.72-5.31,10.56-9.5,17.54-12.56c6.98-3.06,14.98-4.58,24.02-4.58
			c9.83,0,18.54,1.89,26.11,5.68c7.58,3.79,13.62,9.07,18.14,15.85c4.52,6.78,7.04,14.62,7.57,23.52h-31.3
			c-0.53-5.05-2.53-9.27-5.98-12.66c-3.46-3.39-8.31-5.08-14.55-5.08c-5.32,0-9.74,1.33-13.26,3.99c-3.52,2.66-6.15,6.35-7.87,11.06
			c-1.73,4.72-2.59,10.2-2.59,16.45c0,5.85,0.8,11.13,2.39,15.85c1.59,4.72,4.15,8.37,7.67,10.96c3.52,2.59,8.14,3.89,13.85,3.89
			c4.25,0,7.87-0.76,10.86-2.29c2.99-1.53,5.35-3.65,7.08-6.38c1.73-2.72,2.86-5.88,3.39-9.47h31.1c-0.4,9.04-2.92,16.98-7.58,23.82
			c-4.65,6.85-10.83,12.19-18.54,16.05C1113.09,443.97,1104.32,445.89,1094.48,445.89z"/>
		<path class="st0" d="M1220.47,445.89c-9.57,0-18.08-1.5-25.52-4.49c-7.44-2.99-13.75-7.11-18.94-12.36
			c-5.18-5.25-9.1-11.23-11.76-17.94c-2.66-6.71-3.99-13.79-3.99-21.23v-4.58c0-7.58,1.4-14.78,4.19-21.63
			c2.79-6.84,6.81-12.86,12.06-18.04c5.25-5.18,11.59-9.27,19.04-12.26c7.44-2.99,15.75-4.48,24.92-4.48
			c9.43,0,17.84,1.5,25.22,4.48c7.38,2.99,13.66,7.08,18.84,12.26c5.18,5.18,9.17,11.2,11.96,18.04c2.79,6.85,4.19,14.05,4.19,21.63
			v4.58c0,7.44-1.33,14.52-3.99,21.23c-2.66,6.71-6.55,12.69-11.66,17.94c-5.12,5.25-11.4,9.37-18.84,12.36
			C1238.74,444.4,1230.17,445.89,1220.47,445.89z M1220.47,418.78c6.24,0,11.43-1.33,15.55-3.99c4.12-2.66,7.24-6.38,9.37-11.16
			c2.12-4.78,3.19-10.1,3.19-15.95c0-6.25-1.1-11.73-3.29-16.45c-2.19-4.72-5.38-8.44-9.57-11.16c-4.19-2.72-9.27-4.09-15.25-4.09
			c-5.85,0-10.9,1.36-15.15,4.09c-4.25,2.73-7.48,6.45-9.67,11.16c-2.19,4.72-3.29,10.2-3.29,16.45c0,5.85,1.06,11.16,3.19,15.95
			c2.12,4.78,5.31,8.51,9.57,11.16C1209.37,417.46,1214.49,418.78,1220.47,418.78z"/>
	</g>
</g>
<polygon class="st1" points="335.17,334.71 335.12,304.47 276.43,268 276.43,291.33 315.14,315.56 315.17,334.13 297.19,345.71 
	284.92,337.2 284.92,322.79 264.93,309.78 264.93,336.02 233.24,354.51 233.19,403.34 210.78,415.34 199.28,406.77 199.28,392.63 
	212.89,383.76 212.89,383.65 212.89,361.76 188.39,377.35 169.65,365.76 152.54,376.42 179.29,393.83 179.29,404.51 160.01,416.91 
	140.35,404.25 140.35,362.14 169.54,343.35 169.57,325.27 207,348.2 238.46,328.29 219.28,317.65 206.73,325.69 179.39,308.5 
	210.23,291.41 236.93,306.3 236.93,284.1 210.26,269.22 149.6,302.85 149.56,333.09 120.36,351.9 120.36,414.49 149.56,433.29 
	149.6,463.55 208.29,500 208.29,476.69 169.58,452.46 169.55,433.89 187.53,422.31 199.8,430.82 199.8,445.23 219.79,458.23 
	219.79,431.99 251.93,413.51 252.29,364.67 273.95,352.68 285.44,361.25 285.44,375.38 271.83,384.26 271.83,384.37 271.83,406.25 
	296.33,390.66 315.07,402.25 332.18,391.6 305.44,374.17 305.44,363.5 324.71,351.11 344.37,363.76 344.37,405.88 315.19,424.67 
	315.16,442.74 277.72,419.8 246.26,439.59 265.44,450.21 278,442.32 305.34,459.51 274.5,476.6 247.79,461.71 247.79,483.9 
	274.47,498.78 335.12,465.17 335.17,434.92 364.36,416.11 364.36,353.52 "/>
</svg>
